# xmcd
#
# Track frame offsets:
#	150
#	16292
#	30512
#	49280
#	69055
#	84007
#	103750
#	122200
#	136055
#	148232
#	166345
#	187610
#	205227
#	222190
#	241210
#	257777
#	275307
#	292585
#	308037
#	323825
#
# Disc length: 4523 seconds
#
# Revision: 7
# Processed by: cddbd v1.5.1PL0 Copyright (c) Steve Scherf et al.
# Submitted via: audiograbber 1.83.01
#
DISCID=0c11a914
DTITLE=Various Artist - Country - Modern To Timeless Country Classics
DYEAR=1999
DGENRE=Country
TTITLE0=Shania Twain - You're Still The One
TTITLE1=Dixie Chicks - There's Your Trouble
TTITLE2=Leann Rimes - How Do I Live
TTITLE3=Reba McEntire - Talking In Your Sleep
TTITLE4=Mary Chapin Carpenter - Passionate Kisses
TTITLE5=The Mavericks - Dance The Night Away
TTITLE6=Jimmy Nail - Corcodile Shoes
TTITLE7=Dwight Yoakam - Guitars, Cadillacs....
TTITLE8=Adam Couldwell - Crazy Little Thing Called Love
TTITLE9=Steve Earle - Copperhead Road
TTITLE10=Tim McGraw - Everywhere
TTITLE11=The Judds - Love Can Build A Bridge
TTITLE12=The Mavericks - What A Crying Shame
TTITLE13=Nanci Griffith - From A Distance
TTITLE14=Vince Gill - Pretty Little Adriana
TTITLE15=Allison Moorer - A Soft Place To Fall
TTITLE16=Rosanne Cash - The Way We Make A Broken Heart
TTITLE17=Jo Dee Messina - Heads Carolina, Tails California
TTITLE18=Lucinda Williams - Metal Firecracker
TTITLE19=Billy Ray Cyrus - Achy Breaky Heart
EXTD=
EXTT0=
EXTT1=
EXTT2=
EXTT3=
EXTT4=
EXTT5=
EXTT6=
EXTT7=
EXTT8=
EXTT9=
EXTT10=
EXTT11=
EXTT12=
EXTT13=
EXTT14=
EXTT15=
EXTT16=
EXTT17=
EXTT18=
EXTT19=
PLAYORDER=
